<?xml version="1.0" encoding="UTF-8"?>
<svg version="1.1" xmlns="http://www.w3.org/2000/svg" width="1601" height="901">
<path d="M0 0 C528.33 0 1056.66 0 1601 0 C1601 297.33 1601 594.66 1601 901 C1072.67 901 544.34 901 0 901 C0 603.67 0 306.34 0 0 Z " fill="#003A0A" transform="translate(0,0)"/>
<path d="M0 0 C4.77775005 0.79629167 9.20496908 1.85219171 13.8125 3.25 C15.32808153 3.70327038 16.8437078 4.15639117 18.359375 4.609375 C19.12958984 4.84076172 19.89980469 5.07214844 20.69335938 5.31054688 C23.60879881 6.1819695 26.52992988 7.03315079 29.45141602 7.8840332 C41.15788123 11.2997163 52.82852497 14.76801462 64.25610352 19.03808594 C66.87240623 19.95527009 69.47630624 20.71126099 72.15625 21.41796875 C77.69919228 22.90710357 83.19726088 24.51529176 88.6875 26.1875 C90.15920654 26.63488525 90.15920654 26.63488525 91.66064453 27.09130859 C99.86872902 29.60855868 108.016641 32.29124206 116.1394043 35.07104492 C121.77570043 36.98472232 127.44093654 38.73620342 133.15625 40.39453125 C138.99283257 42.08903742 144.79360562 43.86507964 150.5703125 45.75390625 C151.27586273 45.98458801 151.98141296 46.21526978 152.70834351 46.45294189 C155.56533002 47.38957994 158.42107951 48.32991061 161.27587891 49.27319336 C170.03038049 52.16120461 178.78486425 54.79892564 187.70727539 57.11791992 C191.09344187 58.02503192 194.39472367 59.06235879 197.70556641 60.20898438 C200.53487366 61.18439994 203.38125372 62.10000306 206.23046875 63.015625 C207.91305786 63.55654785 207.91305786 63.55654785 209.62963867 64.10839844 C210.80373291 64.48512695 211.97782715 64.86185547 213.1875 65.25 C214.41766846 65.64477539 215.64783691 66.03955078 216.9152832 66.44628906 C219.41997704 67.24968448 221.92477764 68.05274712 224.4296875 68.85546875 C227.661972 69.89163873 230.89352429 70.93006138 234.125 71.96875 C242.18323114 74.55236342 250.24274147 77.0964992 258.375 79.4375 C265.45055012 81.49727318 272.48535774 83.67917163 279.5 85.9375 C280.50337402 86.24937256 281.50674805 86.56124512 282.54052734 86.88256836 C296.3163035 91.38605496 307.77109005 100.35858132 315 113 C321.09474204 126.75934189 322.00370257 140.86647134 317.16796875 155.1328125 C312.8622571 165.70268658 305.96442831 174.14405027 298.28515625 182.46875 C295.92911726 185.07851626 293.70884282 187.76487636 291.5 190.5 C288.5918662 194.0947765 285.61458668 197.58260628 282.5 201 C277.03086628 207.00551111 271.92086147 213.29337803 266.89453125 219.671875 C265 222 265 222 262.5 224.4375 C259.91133079 226.93367462 259.91133079 226.93367462 258 230 C255.91585694 233.12621459 253.68636558 235.37333143 251 238 C249.46707173 239.63457405 247.94736508 241.28159879 246.4375 242.9375 C245.69371094 243.75089844 244.94992188 244.56429687 244.18359375 245.40234375 C241.87777479 247.936708 241.87777479 247.936708 240.45830154 251.11725807 C237.8048635 254.22882798 237.57779926 254.42651587 233.79087448 254.73828697 C232.02194803 254.76352391 230.25236481 254.75534191 228.48358154 254.7215271 C227.02415634 254.72923126 227.02415634 254.72923126 225.5352478 254.73709106 C222.25558112 254.74704481 218.97774158 254.71385151 215.69824219 254.68115234 C213.31482629 254.6793149 210.93140712 254.68011432 208.54799271 254.68334389 C202.15416525 254.68470076 195.76100892 254.64987868 189.36734009 254.60768127 C183.3719873 254.57355936 177.37679931 254.57190523 171.38134766 254.56762695 C153.8374759 254.53611917 136.29372952 254.4523525 118.75 254.375 C79.5625 254.25125 40.375 254.1275 0 254 C0 170.18 0 86.36 0 0 Z " fill="#A3E019" transform="translate(0,647)"/>
<path d="M0 0 C0 100.98 0 201.96 0 306 C-76.23 306 -152.46 306 -231 306 C-237.00458238 290.98854404 -235.68190215 270.30873122 -231 255 C-230.69255859 253.84177734 -230.69255859 253.84177734 -230.37890625 252.66015625 C-226.84201259 240.51169543 -220.39872493 230.30959143 -212 221 C-211.5663916 220.51289551 -211.1327832 220.02579102 -210.68603516 219.52392578 C-205.15806913 213.31817091 -199.44425953 207.34234892 -193.484375 201.546875 C-191.4986516 199.5111963 -189.64695581 197.45172551 -187.796875 195.296875 C-182.8446475 189.5864628 -177.41111596 184.36512677 -172.02734375 179.06640625 C-167.71444695 174.79504618 -163.58427305 170.45894409 -159.63085938 165.85351562 C-157.0576051 162.92894281 -154.28491036 160.22110174 -151.5 157.5 C-148.09057725 154.13284679 -144.71563089 150.79212162 -141.625 147.125 C-137.47421743 142.21569879 -132.82494597 137.77738926 -128.24072266 133.27783203 C-127.60956543 132.65505371 -126.9784082 132.03227539 -126.328125 131.390625 C-125.7599707 130.83407227 -125.19181641 130.27751953 -124.60644531 129.70410156 C-122.91619571 127.98753993 -122.91619571 127.98753993 -121.41699219 125.78808594 C-120.94938477 125.19801758 -120.48177734 124.60794922 -120 124 C-119.34 124 -118.68 124 -118 124 C-117.7321167 123.40541992 -117.4642334 122.81083984 -117.18823242 122.19824219 C-115.98789327 119.97760243 -114.79297002 118.5756393 -112.98828125 116.828125 C-112.09786133 115.95414063 -112.09786133 115.95414063 -111.18945312 115.0625 C-110.26036133 114.1653125 -110.26036133 114.1653125 -109.3125 113.25 C-105.63240517 109.67663187 -102.03674981 106.10200846 -98.69921875 102.203125 C-93.40026569 96.05506169 -87.51416982 90.47153659 -81.73828125 84.77734375 C-77.1491911 80.22798598 -72.68199695 75.65468813 -68.50390625 70.72265625 C-66.90982663 68.89671051 -65.23069689 67.19628538 -63.5 65.5 C-61.20970105 63.24988173 -59.07161261 60.95211288 -57 58.5 C-52.80082124 53.6136829 -48.19093501 49.13855 -43.59375 44.63085938 C-40.44629109 41.5260223 -37.4172455 38.38188423 -34.53125 35.03125 C-30.26860087 30.08772778 -25.61799832 25.5678451 -20.9609375 21 C-16.9693513 17.05464839 -13.18575031 13.00590142 -9.52246094 8.75390625 C-7.79306576 6.76160751 -5.9946668 4.86105082 -4.125 3 C-3.26261719 2.13375 -3.26261719 2.13375 -2.3828125 1.25 C-1 0 -1 0 0 0 Z " fill="#A4E019" transform="translate(1601,595)"/>
<path d="M0 0 C138.27 0 276.54 0 419 0 C413.87167079 10.82647278 408.82727505 21.36698195 403.1875 31.8828125 C399.97942814 37.88236032 396.97203496 43.98141527 393.953125 50.07763672 C392.45589386 53.09741079 390.9463027 56.11099747 389.4375 59.125 C388.77988 60.44007021 388.12233332 61.75517708 387.46484375 63.0703125 C383.31298828 71.37402343 383.31298828 71.37402343 382.39338684 73.21321106 C381.75428164 74.4914317 381.11519292 75.76966057 380.47612 77.04789734 C378.81738987 80.36553823 377.15837339 83.68303534 375.4987793 87.00024414 C371.559961 94.87221903 371.559961 94.87221903 367.640625 102.75390625 C365.77785089 106.51145134 363.89416649 110.25819355 362 114 C361.5776709 114.83885742 361.1553418 115.67771484 360.72021484 116.54199219 C359.30331113 119.34606397 357.87190884 122.14234773 356.4375 124.9375 C356.00211914 125.8025415 355.56673828 126.66758301 355.11816406 127.55883789 C346.18417682 144.82555037 332.18723789 155.56229516 314 162 C296.69670753 165.95944583 278.49853738 163.52689095 263.30859375 154.453125 C262.54675781 153.97359375 261.78492188 153.4940625 261 153 C259.38547486 151.99967463 257.77090818 150.99941544 256.15551758 150.00048828 C254.46194983 148.95262784 252.77002466 147.90211415 251.078125 146.8515625 C248.09018744 145.0542498 245.08366472 143.47465094 241.93725586 141.98242188 C240.04702465 141.02384716 238.30133883 139.96643638 236.51953125 138.8203125 C231.10721626 135.40459286 225.55122182 132.24557614 220 129.0625 C217.67811689 127.72702597 215.35644463 126.39119415 213.03515625 125.0546875 C212.1552578 124.54825966 212.1552578 124.54825966 211.25758362 124.03160095 C205.30562208 120.60403713 199.36937068 117.14970922 193.4375 113.6875 C192.44065186 113.10572998 191.44380371 112.52395996 190.41674805 111.92456055 C184.70679588 108.58905332 179.0068731 105.23700909 173.3125 101.875 C166.07744138 97.60343412 158.78740116 93.43067462 151.47973633 89.28466797 C146.4929548 86.44964698 141.55784644 83.54286941 136.64575195 80.58056641 C131.65292947 77.59786522 126.60419921 74.71153332 121.5625 71.8125 C120.40634526 71.14668295 119.25025902 70.48074694 118.09423828 69.81469727 C115.79132579 68.48786203 113.48825101 67.16131043 111.18505859 65.83496094 C104.63128045 62.05922918 98.08458137 58.27137449 91.54296875 54.47460938 C89.69732938 53.40436535 87.85086689 52.33554037 86.00390625 51.26757812 C82.79262388 49.41037994 79.5836587 47.54922671 76.375 45.6875 C75.37903809 45.11249756 74.38307617 44.53749512 73.35693359 43.94506836 C68.11024962 40.89533931 62.99418495 37.7437825 58.00219727 34.29101562 C55.9184825 32.94743756 53.80403196 31.8683707 51.5625 30.8125 C46.5197544 28.38567868 41.81566597 25.50353977 37.0625 22.5625 C31.43224923 19.07962205 25.78972631 15.72395289 19.9453125 12.609375 C15.85755911 10.37574848 11.83408218 8.03773232 7.8125 5.6875 C7.04413818 5.24204834 6.27577637 4.79659668 5.48413086 4.33764648 C3.63866896 3.25423578 1.81672939 2.13093002 0 1 C0 0.67 0 0.34 0 0 Z " fill="#A3E018" transform="translate(152,0)"/>
<path d="M0 0 C81.18 0 162.36 0 246 0 C246 57.75 246 115.5 246 175 C242.03762399 173.01881199 238.50238066 170.70271415 234.875 168.1875 C234.17560303 167.70466553 233.47620605 167.22183105 232.75561523 166.72436523 C226.71449769 162.53484921 220.75191854 158.24009809 214.80224609 153.92211914 C209.56059363 150.11929633 204.2925474 146.35665249 199 142.625 C198.29697754 142.12830811 197.59395508 141.63161621 196.86962891 141.11987305 C193.83291721 138.97828719 190.78756234 136.85551208 187.71484375 134.765625 C186.79832031 134.14171875 185.88179687 133.5178125 184.9375 132.875 C184.16277344 132.35679687 183.38804687 131.83859375 182.58984375 131.3046875 C182.06519531 130.87414062 181.54054688 130.44359375 181 130 C181 129.34 181 128.68 181 128 C180.32710937 127.77183594 179.65421875 127.54367188 178.9609375 127.30859375 C175.18310035 125.63896915 171.99756411 123.42886665 168.625 121.0625 C167.92310547 120.57523437 167.22121094 120.08796875 166.49804688 119.5859375 C161.15218694 115.85582178 155.89335635 112.01379695 150.65576172 108.13378906 C145.41926586 104.26865815 140.07293989 100.57955983 134.69702148 96.91186523 C130.05942478 93.74324698 125.49965667 90.485419 120.97265625 87.16015625 C116.43526388 83.86294471 111.84120638 80.64680879 107.25366211 77.41992188 C103.34968188 74.67018827 99.46960521 71.89505181 95.625 69.0625 C90.76821449 65.50282261 85.79552308 62.12885533 80.8125 58.75 C74.11338286 54.20128963 67.57733293 49.49850682 61.13452148 44.59521484 C53.3511677 38.69899824 45.30888607 33.17530002 37.29345703 27.6015625 C33.56603065 24.99863328 29.86955368 22.35327693 26.17773438 19.70019531 C22.96876251 17.39695101 19.7442208 15.11837617 16.50390625 12.859375 C15.73522217 12.32199707 14.96653809 11.78461914 14.17456055 11.23095703 C12.6796432 10.1869432 11.18252333 9.14607361 9.68286133 8.10888672 C9.00118896 7.63209473 8.3195166 7.15530273 7.6171875 6.6640625 C7.01503418 6.24592285 6.41288086 5.8277832 5.79248047 5.39697266 C3.71094777 3.77472666 1.86607347 1.86607347 0 0 Z " fill="#A3E018" transform="translate(1355,0)"/>
<path d="M0 0 C52.8 0 105.6 0 160 0 C160 19.14 160 38.28 160 58 C153.07 58 146.14 58 139 58 C139 46.12 139 34.24 139 22 C125.8 22 112.6 22 99 22 C99 33.88 99 45.76 99 58 C93.72 58 88.44 58 83 58 C83 66.91 83 75.82 83 85 C87.95 85 92.9 85 98 85 C98.01458252 86.61898193 98.02916504 88.23796387 98.04418945 89.90600586 C98.10236218 95.93894021 98.17959457 101.97150873 98.26245117 108.00415039 C98.29561126 110.61020958 98.32367065 113.21633904 98.34643555 115.82250977 C98.38014489 119.5785911 98.43247112 123.33403355 98.48828125 127.08984375 C98.49467117 128.24645004 98.5010611 129.40305634 98.50764465 130.5947113 C98.7010235 141.34566018 101.07413642 150.56891965 108.4375 158.6875 C113.12253285 162.36251278 119.34883211 163.49917055 125 165 C125 165.33 125 165.66 125 166 C83.75 166 42.5 166 0 166 C0 111.22 0 56.44 0 0 Z " fill="#FDFDFC" transform="translate(417,372)"/>
<path d="M0 0 C13.2 0 26.4 0 40 0 C40 11.88 40 23.76 40 36 C43.25875 36 46.5175 36 49.875 36 C62.25 36 62.25 36 66.17431641 36.09179688 C67.03505768 36.11181763 67.89579895 36.13183838 68.78262329 36.15246582 C69.71287323 36.1743396 70.64312317 36.19621338 71.6015625 36.21875 C72.55316254 36.24094604 73.50476257 36.26314209 74.48519897 36.28601074 C77.53180445 36.35712289 80.57840225 36.42855791 83.625 36.5 C85.6874995 36.54819831 87.7499995 36.59637566 89.8125 36.64453125 C94.87500669 36.76273793 99.93750289 36.88138082 105 37 C105.33 43.27 105.66 49.54 106 56 C107.11375 54.515 108.2275 53.03 109.375 51.5 C115.13571123 44.3118559 122.02043962 37.71081068 131 35 C133.31 35 135.62 35 138 35 C138 47.54 138 60.08 138 73 C132.72 73.99 127.44 74.98 122 76 C116.87919577 77.79299656 116.87919577 77.79299656 112 80 C111.14501419 80.39250443 110.29002838 80.78500885 109.40913391 81.18940735 C106.74357158 82.79034232 106.74357158 82.79034232 106.36076355 85.71452332 C106.35410172 86.80928482 106.34743988 87.90404633 106.34057617 89.03198242 C106.31111153 90.89357246 106.31111153 90.89357246 106.28105164 92.79277039 C106.28449509 94.14700462 106.28848021 95.50123757 106.29296875 96.85546875 C106.27985428 98.24125849 106.26455081 99.6270291 106.24714661 101.01277161 C106.20725263 104.65756283 106.19710351 108.30185457 106.19311523 111.94683838 C106.18379182 115.66718501 106.14665477 119.38724623 106.11132812 123.10742188 C106.04407573 130.40532616 106.02330502 137.70129236 106 145 C92.8 145 79.6 145 66 145 C66 144.01 66 143.02 66 142 C64.88625 142.13277344 63.7725 142.26554688 62.625 142.40234375 C61.08335873 142.58094853 59.54169054 142.75932101 58 142.9375 C57.27554688 143.02451172 56.55109375 143.11152344 55.8046875 143.20117188 C38.53047147 145.1774593 21.28695864 145.13686044 3.92498589 145.10139394 C0.29622463 145.09506705 -3.33253779 145.09454932 -6.96130371 145.09336853 C-13.80668515 145.09028237 -20.65205029 145.08210626 -27.4974246 145.07201904 C-35.30175613 145.06077272 -43.10608851 145.05532616 -50.91042614 145.05032361 C-66.94029348 145.03992082 -82.97014462 145.02237496 -99 145 C-99 144.67 -99 144.34 -99 144 C-39.105 143.505 -39.105 143.505 22 143 C18.7 141.68 15.4 140.36 12 139 C4.40407354 133.48682757 0.53778718 127.41903461 -1 118 C-1.25945368 113.72660195 -1.23334053 109.46741557 -1.1953125 105.1875 C-1.1924826 103.97803711 -1.18965271 102.76857422 -1.18673706 101.52246094 C-1.17559396 97.68153752 -1.15049983 93.84085225 -1.125 90 C-1.11496263 87.38672213 -1.1058381 84.77344059 -1.09765625 82.16015625 C-1.07567379 75.77334655 -1.04118416 69.38671358 -1 63 C-5.95 63 -10.9 63 -16 63 C-16 54.09 -16 45.18 -16 36 C-10.72 36 -5.44 36 0 36 C0 24.12 0 12.24 0 0 Z " fill="#073F10" transform="translate(516,394)"/>
<path d="M0 0 C2.48869085 1.0562467 3.53626401 0.84928359 6.015625 -0.14453125 C7.0984375 -1.04171875 7.0984375 -1.04171875 8.203125 -1.95703125 C14.40511995 -6.7808051 19.08684475 -8.14453125 27.015625 -8.14453125 C27.015625 1.09546875 27.015625 10.33546875 27.015625 19.85546875 C22.395625 20.18546875 17.775625 20.51546875 13.015625 20.85546875 C13.510625 21.84546875 13.510625 21.84546875 14.015625 22.85546875 C15.00749594 32.69287722 13.66784714 42.39573138 8.09765625 50.72265625 C-0.54947307 61.03799282 -13.78710906 66.18326859 -26.984375 67.85546875 C-29.68343831 67.94714523 -32.34948016 67.99558021 -35.046875 67.98046875 C-35.74103516 67.98433594 -36.43519531 67.98820312 -37.15039062 67.9921875 C-40.88770871 67.98508908 -44.35148394 67.74775778 -47.984375 66.85546875 C-47.489375 70.32046875 -47.489375 70.32046875 -46.984375 73.85546875 C-46.02120361 73.96822144 -46.02120361 73.96822144 -45.03857422 74.08325195 C-38.50089166 74.85126421 -31.96558926 75.63736848 -25.43164062 76.43652344 C-23.22771638 76.70436579 -21.02332524 76.96841137 -18.81835938 77.22753906 C11.13138929 80.75962443 11.13138929 80.75962443 20.76953125 91.87890625 C26.20782765 98.92903508 27.93777099 103.86746354 27.015625 112.85546875 C25.14259326 121.13269885 21.6343727 128.23975416 14.35693359 132.92285156 C12.41665505 134.06634818 10.45183218 135.13010489 8.453125 136.16796875 C7.8353418 136.49369873 7.21755859 136.81942871 6.58105469 137.1550293 C-5.90776578 143.18460171 -19.27987282 143.3887236 -32.85058594 143.35644531 C-35.71652403 143.3554748 -38.57975954 143.39719991 -41.4453125 143.44140625 C-55.00121678 143.52886134 -71.89498313 142.9634594 -82.57421875 133.37890625 C-86.64267589 128.98362015 -88.74516588 125.25494125 -89.13671875 119.28125 C-88.63709238 111.32566092 -84.64177757 105.8396403 -78.984375 100.546875 C-77.0373145 98.90023985 -75.04369295 97.35858698 -72.984375 95.85546875 C-73.644375 94.90671875 -74.304375 93.95796875 -74.984375 92.98046875 C-77.61302196 88.33339645 -77.78035164 84.0744496 -76.984375 78.85546875 C-75.03449904 72.44049221 -70.82046152 68.28761301 -65.984375 63.85546875 C-64.97980886 62.86005583 -63.97831456 61.86149268 -62.984375 60.85546875 C-63.57605469 60.28699219 -64.16773438 59.71851563 -64.77734375 59.1328125 C-74.92047232 49.22133776 -78.83078553 42.79219207 -79.359375 28.41796875 C-79.12521498 17.91774029 -75.77175914 10.59983478 -68.46875 3.08203125 C-50.38696473 -13.12334234 -20.16882859 -12.02372473 0 0 Z " fill="#FCFCFC" transform="translate(1151.984375,437.14453125)"/>
<path d="M0 0 C1.1859375 -0.01611328 2.371875 -0.03222656 3.59375 -0.04882812 C16.15306783 -0.05568365 26.9980232 1.29327734 36.25 10.3125 C36.75144531 10.79847656 37.25289062 11.28445313 37.76953125 11.78515625 C47.2214859 22.03667202 47.55037376 36.05281154 47.375 49.17578125 C47.3634239 51.17662264 47.35185988 53.17746418 47.3409729 55.17830944 C47.31491178 59.36078912 47.27056842 63.54311253 47.22924805 67.72546387 C47.19585644 71.17546015 47.16669205 74.6253757 47.14794922 78.07548523 C47.13309258 80.64897327 47.10926527 83.2224317 47.07470703 85.79573059 C47.06810059 86.98373764 47.06149414 88.17174469 47.0546875 89.39575195 C47.04421387 90.4203804 47.03374023 91.44500885 47.02294922 92.50068665 C47.35906824 98.14357833 48.39043696 103.72534026 49.25 109.3125 C36.38 109.3125 23.51 109.3125 10.25 109.3125 C9.59 107.0025 8.93 104.6925 8.25 102.3125 C7.6209375 102.71082031 6.991875 103.10914063 6.34375 103.51953125 C-5.6400657 110.9372244 -18.13686019 114.53368788 -32.34375 111.81640625 C-39.58976278 109.62026881 -45.56732068 105.69658949 -49.75 99.3125 C-53.64050881 91.53148238 -54.01859909 81.05099521 -52.16796875 72.6796875 C-48.26646406 61.31366015 -39.52402991 54.33512341 -29.21875 48.99609375 C-17.12509546 43.12631322 -4.23470232 40.01250662 9.25 40.3125 C8.13744102 35.49141107 7.19630932 32.4217134 3.25 29.3125 C-6.4100845 26.09247183 -14.84474215 29.35834148 -23.75 33.3125 C-24.68199219 33.71597656 -25.61398437 34.11945313 -26.57421875 34.53515625 C-28.64273614 35.44114738 -30.70047038 36.36452635 -32.75 37.3125 C-36.09754528 32.98994153 -39.43041613 28.65656466 -42.75 24.3125 C-43.33652344 23.54808594 -43.92304687 22.78367187 -44.52734375 21.99609375 C-47.75 17.67119565 -47.75 17.67119565 -47.75 14.3125 C-33.71331967 3.63956469 -17.18957276 -0.04610937 0 0 Z " fill="#FCFCFC" transform="translate(705.75,428.6875)"/>
<path d="M0 0 C5.73170216 5.12864377 9.68698896 10.22319948 10.33392334 18.11480713 C10.58455225 23.72558918 10.48789843 29.33163389 10.3984375 34.9453125 C10.38723208 37.01609055 10.37869826 39.08688462 10.37271118 41.15768433 C10.34991896 46.5798822 10.29107887 52.00109936 10.2244873 57.4229126 C10.16285687 62.96670265 10.13565196 68.51065283 10.10546875 74.0546875 C10.04132565 84.9119562 9.93587943 95.76824271 9.8125 106.625 C-2.7275 106.625 -15.2675 106.625 -28.1875 106.625 C-28.5175 81.215 -28.8475 55.805 -29.1875 29.625 C-36.02520956 28.55261322 -36.02520956 28.55261322 -41.9375 30.375 C-42.86046875 30.72046875 -43.7834375 31.0659375 -44.734375 31.421875 C-47.28044869 32.6705863 -48.50890838 33.36019623 -50.1875 35.625 C-50.6636607 38.79589421 -50.6636607 38.79589421 -50.61987305 42.4831543 C-50.6300647 43.17609589 -50.64025635 43.86903748 -50.65075684 44.58297729 C-50.68093443 46.87180618 -50.69015963 49.1602169 -50.69921875 51.44921875 C-50.71606198 53.0367828 -50.73421174 54.62433348 -50.75361633 56.21186829 C-50.80116144 60.38916854 -50.83094142 64.56641461 -50.85705566 68.74389648 C-50.89207546 73.75672989 -50.94910092 78.76935516 -51.00244904 83.78202057 C-51.08101591 91.39632092 -51.1315808 99.01034786 -51.1875 106.625 C-63.7275 106.625 -76.2675 106.625 -89.1875 106.625 C-89.1875 71.645 -89.1875 36.665 -89.1875 0.625 C-76.6475 0.625 -64.1075 0.625 -51.1875 0.625 C-50.5275 4.255 -49.8675 7.885 -49.1875 11.625 C-48.07375 10.738125 -46.96 9.85125 -45.8125 8.9375 C-41.20949642 5.49539503 -36.42942366 2.95658119 -31.1875 0.625 C-30.17816406 0.14160156 -30.17816406 0.14160156 -29.1484375 -0.3515625 C-20.74278299 -3.8241688 -8.00054423 -4.79489323 0 0 Z " fill="#FEFDFE" transform="translate(900.1875,431.375)"/>
<path d="M0 0 C4.06949958 3.64519157 6.93115056 8.32470169 8.6484375 13.4765625 C8.74013284 16.44379856 8.77438392 19.38713526 8.76196289 22.35424805 C8.76210892 23.26176819 8.76225494 24.16928833 8.7624054 25.10430908 C8.76170811 28.10732402 8.75392426 31.11027713 8.74609375 34.11328125 C8.74422892 36.19407619 8.74280532 38.27487158 8.74180603 40.35566711 C8.73798599 45.8350648 8.72816005 51.31443602 8.71710205 56.79382324 C8.70687693 62.38402956 8.70230605 67.97424015 8.69726562 73.56445312 C8.68653735 84.53516975 8.66894467 95.50585979 8.6484375 106.4765625 C-4.2215625 106.4765625 -17.0915625 106.4765625 -30.3515625 106.4765625 C-30.38894531 101.01351562 -30.42632813 95.55046875 -30.46484375 89.921875 C-30.49510857 86.46741593 -30.52624655 83.01300933 -30.56054688 79.55859375 C-30.61494378 74.07180361 -30.66605025 68.58511728 -30.69799805 63.09814453 C-30.72394798 58.67595915 -30.76429046 54.25412081 -30.81474876 49.83214951 C-30.83147399 48.14244773 -30.84295292 46.45268584 -30.84917641 44.76291275 C-30.85875653 42.40162755 -30.88674023 40.04124162 -30.91918945 37.68017578 C-30.91775436 36.97671021 -30.91631927 36.27324463 -30.9148407 35.54846191 C-30.92203561 33.39905379 -30.92203561 33.39905379 -31.3515625 30.4765625 C-35.00298981 28.04227763 -36.02868039 27.84777965 -40.3515625 28.4765625 C-43.06254317 29.90909299 -45.61455365 31.4850658 -48.1796875 33.1640625 C-50.3515625 34.4765625 -50.3515625 34.4765625 -52.3515625 34.4765625 C-52.3515625 58.2365625 -52.3515625 81.9965625 -52.3515625 106.4765625 C-64.5615625 106.4765625 -76.7715625 106.4765625 -89.3515625 106.4765625 C-89.3515625 71.4965625 -89.3515625 36.5165625 -89.3515625 0.4765625 C-77.1415625 0.4765625 -64.9315625 0.4765625 -52.3515625 0.4765625 C-51.8565625 5.4265625 -51.8565625 5.4265625 -51.3515625 10.4765625 C-47.53295803 9.09360845 -44.40349699 7.30311755 -41.0390625 5.0390625 C-30.08651786 -2.04181649 -12.10031432 -7.34473227 0 0 Z " fill="#FDFDFD" transform="translate(1059.3515625,431.5234375)"/>
<path d="M0 0 C0 12.54 0 25.08 0 38 C-5.28 38.99 -10.56 39.98 -16 41 C-21.14758101 42.75302713 -21.14758101 42.75302713 -26 45 C-27.01900391 45.40516846 -28.03800781 45.81033691 -29.08789062 46.2277832 C-31.51066277 47.87787611 -31.95147706 48.77026561 -32.5664978 51.68211365 C-32.79450516 55.30436359 -32.83023812 58.88619225 -32.8046875 62.515625 C-32.81594057 63.85514716 -32.82982252 65.19464961 -32.84622192 66.53411865 C-32.88225221 70.0524477 -32.88263496 73.56990772 -32.87554932 77.08837891 C-32.87463623 80.6814695 -32.90717171 84.27424714 -32.9375 87.8671875 C-32.99451122 94.91214574 -32.99576054 101.95402069 -33 109 C-45.54 109 -58.08 109 -71 109 C-71 74.02 -71 39.04 -71 3 C-58.46 3 -45.92 3 -33 3 C-32.505 11.91 -32.505 11.91 -32 21 C-30.88625 19.515 -29.7725 18.03 -28.625 16.5 C-20.77854891 6.70929555 -12.80822991 0 0 0 Z " fill="#FEFDFE" transform="translate(654,429)"/>
<path d="M0 0 C12.87 0 25.74 0 39 0 C39 35.31 39 70.62 39 107 C26.13 107 13.26 107 0 107 C0 71.69 0 36.38 0 0 Z " fill="#FBFCFB" transform="translate(920,432)"/>
<path d="M0 0 C12.54 0 25.08 0 38 0 C38 34.98 38 69.96 38 106 C25.46 106 12.92 106 0 106 C0 71.02 0 36.04 0 0 Z " fill="#FEFEFE" transform="translate(763,432)"/>
<path d="M0 0 C12.87 0 25.74 0 39 0 C39 10.56 39 21.12 39 32 C26.13 32 13.26 32 0 32 C0 21.44 0 10.88 0 0 Z " fill="#F9FAF8" transform="translate(920,387)"/>
<path d="M0 0 C12.87 0 25.74 0 39 0 C39 10.56 39 21.12 39 32 C26.13 32 13.26 32 0 32 C0 21.44 0 10.88 0 0 Z " fill="#F8F9F9" transform="translate(762,387)"/>
<path d="M0 0 C6.93 0 13.86 0 21 0 C21 16.17 21 32.34 21 49 C17.85242606 50.57378697 14.51604524 50.30817679 11.0625 50.375 C10.33353516 50.41238281 9.60457031 50.44976562 8.85351562 50.48828125 C6.72265625 50.5234375 6.72265625 50.5234375 3 50 C-1.03938818 45.55391182 -0.38418883 40.31486282 -0.29296875 34.66796875 C-0.28872391 33.67622147 -0.28447906 32.68447418 -0.28010559 31.66267395 C-0.26335123 28.50400315 -0.22570448 25.34597703 -0.1875 22.1875 C-0.17244899 20.04232694 -0.15876132 17.89714385 -0.14648438 15.75195312 C-0.11601379 10.50085562 -0.05728524 5.251147 0 0 Z " fill="#FBFBFD" transform="translate(556,457)"/>
<path d="M0 0 C1.56349439 0.06864771 3.12386931 0.20962254 4.6796875 0.37890625 C9.07875212 0.82307675 13.47021721 1.18343766 17.8828125 1.46484375 C19.66365234 1.58182617 19.66365234 1.58182617 21.48046875 1.70117188 C23.91768776 1.85921234 26.35519734 2.01283157 28.79296875 2.16210938 C45.93494117 3.30925987 45.93494117 3.30925987 52 7 C52.75 9.625 52.75 9.625 53 12 C43.72967419 19.13101985 33.18755875 18.34372083 22 18 C20.95714844 17.97035156 19.91429687 17.94070313 18.83984375 17.91015625 C11.75426022 17.50156423 5.44357018 15.92181712 -0.0625 11.25 C-1.52346761 7.74367773 -1.24799439 4.78191441 -1 1 C-0.67 0.67 -0.34 0.34 0 0 Z " fill="#093F11" transform="translate(1098,543)"/>
<path d="M0 0 C4.43752634 2.81731323 6.95768492 6.92872506 8.52734375 11.86328125 C9.93992547 18.24908457 9.51381318 23.59442177 6.265625 29.3359375 C3.54173843 32.91734392 0.27340235 33.78776627 -4 34.5 C-8.2208485 33.79652525 -10.06921942 32.06399788 -13 29 C-15.76896209 22.38839664 -16.67620055 13.72619433 -14.2421875 6.86328125 C-13.25 5.3125 -13.25 5.3125 -11 3 C-10.401875 2.38125 -9.80375 1.7625 -9.1875 1.125 C-5.8473142 -0.59280984 -3.70222083 -0.57448254 0 0 Z " fill="#073E0E" transform="translate(1123,449)"/>
<path d="M0 0 C2.24400129 2.24400129 1.32623408 7.23981247 1.375 10.25 C1.41238281 11.10980469 1.44976563 11.96960938 1.48828125 12.85546875 C1.55137171 17.40499188 1.51595623 19.3455547 -1.38671875 23.02734375 C-6.91808332 27.20273853 -12.17773345 27.88735562 -19 27 C-21.94750936 25.34651914 -22.67069752 24.14928747 -23.58984375 20.94140625 C-24.30228971 16.91778286 -24.26410908 14.58563319 -22.5625 10.8125 C-16.28734829 3.92513837 -9.65584444 -0.67366357 0 0 Z " fill="#053D0F" transform="translate(714,489)"/>
<path d="M0 0 C1.670625 0.47566406 1.670625 0.47566406 3.375 0.9609375 C8.23847649 2.17680662 13.00578435 2.44088145 18 2.625 C18.87011719 2.66367188 19.74023438 2.70234375 20.63671875 2.7421875 C22.75750486 2.83540887 24.87872185 2.91874136 27 3 C27 3.33 27 3.66 27 4 C25.60974609 4.09087891 25.60974609 4.09087891 24.19140625 4.18359375 C22.99386719 4.26738281 21.79632813 4.35117188 20.5625 4.4375 C19.36753906 4.51871094 18.17257812 4.59992188 16.94140625 4.68359375 C14.11429756 4.67656114 14.11429756 4.67656114 13 6 C11.47480724 5.91062197 9.95318071 5.75462854 8.4375 5.5625 C7.19806641 5.40974609 7.19806641 5.40974609 5.93359375 5.25390625 C5.29550781 5.17011719 4.65742188 5.08632812 4 5 C3.67 4.01 3.34 3.02 3 2 C2.01 1.67 1.02 1.34 0 1 C0 0.67 0 0.34 0 0 Z " fill="#19550C" transform="translate(429,160)"/>
<path d="M0 0 C0 0.99 0 1.98 0 3 C-5.61 3 -11.22 3 -17 3 C-13.59518685 1.29759343 -12.07671763 0.70572389 -8.5 0.375 C-7.7471875 0.30023437 -6.994375 0.22546875 -6.21875 0.1484375 C-4.14986768 0.01002636 -2.0735071 0 0 0 Z " fill="#8FA893" transform="translate(577,536)"/>
<path d="M0 0 C0 1.32 0 2.64 0 4 C2.475 4.99 2.475 4.99 5 6 C5.33 5.34 5.66 4.68 6 4 C5.67 5.32 5.34 6.64 5 8 C0.39104317 6.68315519 -3.14140235 4.84801255 -7 2 C-7 1.67 -7 1.34 -7 1 C-2.25 0 -2.25 0 0 0 Z " fill="#97D019" transform="translate(369,121)"/>
<path d="M0 0 C0.33 0 0.66 0 1 0 C1 2.64 1 5.28 1 8 C-0.65 8.66 -2.3 9.32 -4 10 C-3.52449439 8.51965236 -3.04448784 7.04074979 -2.5625 5.5625 C-2.29566406 4.73878906 -2.02882813 3.91507813 -1.75390625 3.06640625 C-1 1 -1 1 0 0 Z " fill="#97CE23" transform="translate(1378,831)"/>
<path d="M0 0 C0.33 0 0.66 0 1 0 C1 2.64 1 5.28 1 8 C2.65 8.33 4.3 8.66 6 9 C5.01 9.99 4.02 10.98 3 12 C2.01 11.67 1.02 11.34 0 11 C0 7.37 0 3.74 0 0 Z " fill="#184B1F" transform="translate(1007,431)"/>
<path d="M0 0 C0.66 0.33 1.32 0.66 2 1 C0.02 3.31 -1.96 5.62 -4 8 C-4.33 6.68 -4.66 5.36 -5 4 C-3 1 -3 1 0 0 Z " fill="#95CF11" transform="translate(255,877)"/>
<path d="M0 0 C-0.33 0.99 -0.66 1.98 -1 3 C-5.95 2.67 -10.9 2.34 -16 2 C-16 1.67 -16 1.34 -16 1 C-13.70839646 0.83246763 -11.41671509 0.66599948 -9.125 0.5 C-7.84882812 0.4071875 -6.57265625 0.314375 -5.2578125 0.21875 C-3.50763316 0.10123196 -1.75412035 0 0 0 Z " fill="#446B4E" transform="translate(577,506)"/>
<path d="M0 0 C0.66 0.33 1.32 0.66 2 1 C-0.75 6.875 -0.75 6.875 -3 8 C-3.66 7.34 -4.32 6.68 -5 6 C-3.35 4.02 -1.7 2.04 0 0 Z " fill="#1E5B0B" transform="translate(263,869)"/>
<path d="M0 0 C4.455 0.99 4.455 0.99 9 2 C8.67 2.66 8.34 3.32 8 4 C5.69 3.67 3.38 3.34 1 3 C0.67 2.01 0.34 1.02 0 0 Z " fill="#95CE18" transform="translate(143,691)"/>
<path d="M0 0 C-1.41396902 0.50757862 -2.83131729 1.00574925 -4.25 1.5 C-5.43335938 1.91765625 -5.43335938 1.91765625 -6.640625 2.34375 C-9 3 -9 3 -13 3 C-9.35847124 -0.64152876 -4.83391205 -1.50128106 0 0 Z " fill="#E3E8E0" transform="translate(1107,431)"/>
<path d="M0 0 C0.99 0.33 1.98 0.66 3 1 C3.33 2.65 3.66 4.3 4 6 C3.01 6.66 2.02 7.32 1 8 C0.67 5.36 0.34 2.72 0 0 Z " fill="#1D4D21" transform="translate(1147,549)"/>
<path d="M0 0 C2.97 0.495 2.97 0.495 6 1 C6 1.99 6 2.98 6 4 C4.02 3.34 2.04 2.68 0 2 C0 1.34 0 0.68 0 0 Z " fill="#A6E315" transform="translate(368,123)"/>
</svg>
