<svg xmlns="http://www.w3.org/2000/svg" fill="none" viewBox="0 0 1067 601" height="601" width="1067">
<g clip-path="url(#clip0_3991_1463)">
<rect fill="#7AADA6" height="600.188" width="1067"></rect>
<path fill="#CEEAED" d="M-324.569 1009.22L139.692 1277.09C187.142 1304.54 248.011 1281.24 264.966 1228.91L494.169 519.101C498.316 506.171 507.953 495.559 520.273 490.069C537.35 482.507 557.355 485.434 571.383 497.754L982.581 856.013C1013.69 883.215 1059.67 884.312 1092.24 859.062L1503.32 538.984C1552.6 500.682 1546.13 424.443 1491 394.924L963.064 111.684C948.183 103.633 937.326 89.6053 933.667 73.0159C930.251 58.1341 932.813 42.3985 940.864 29.2247L1255.94 -483.95C1276.92 -517.861 1271.68 -561.896 1243.5 -590.074C1229.84 -603.735 1212.15 -612.396 1193.24 -614.714L708.612 -675.826C705.318 -676.192 701.903 -676.924 698.731 -677.656L673.725 -683.877C669.212 -684.975 665.065 -686.439 660.795 -688.268L216.174 -876.729C183.971 -890.391 146.645 -883.072 121.883 -858.31C111.148 -847.576 103.463 -834.036 99.5601 -819.398L-27.0563 -336.353C-30.8378 -321.837 -38.4006 -308.663 -49.013 -298.051C-59.5034 -287.56 -72.6774 -279.997 -87.0712 -276.094L-571.702 -148.136C-601.222 -140.329 -624.398 -117.396 -632.327 -87.9988C-644.403 -43.4758 -619.519 2.63307 -575.606 16.7829L137.008 246.839C152.744 251.84 164.332 265.136 167.503 281.238C170.187 295.144 166.162 309.659 156.647 320.15L-345.305 876.506C-382.144 917.247 -371.897 981.653 -324.325 1008.98L-324.569 1009.22Z"></path>
<path fill="#061F00" d="M241.511 293.933C241.511 267.097 264.075 245.183 291.004 245.183C305.861 245.183 316.446 251.033 324.432 258.647L315.054 268.025C309.389 262.64 301.589 258.554 291.004 258.554C271.411 258.554 256.089 274.34 256.089 293.933C256.089 313.525 271.411 329.311 291.004 329.311C303.725 329.311 310.968 324.204 315.611 319.561C319.418 315.754 321.925 310.275 322.854 302.847H291.004V289.568H335.854C336.318 291.983 336.596 294.768 336.596 297.925C336.596 307.954 333.904 320.304 325.082 329.033C316.539 337.947 305.582 342.683 291.096 342.683C264.075 342.59 241.511 320.768 241.511 293.933Z"></path>
<path fill="#061F00" d="M372.718 279.911C355.354 279.911 341.239 293.097 341.239 311.297C341.239 329.404 355.354 342.683 372.718 342.683C390.082 342.683 404.196 329.404 404.196 311.297C404.196 293.097 390.082 279.911 372.718 279.911ZM372.718 330.24C363.246 330.24 354.982 322.44 354.982 311.204C354.982 299.875 363.154 292.168 372.718 292.168C382.189 292.168 390.454 299.875 390.454 311.204C390.454 322.44 382.189 330.24 372.718 330.24Z"></path>
<path fill="#061F00" d="M441.432 279.911C424.068 279.911 409.954 293.097 409.954 311.297C409.954 329.404 424.068 342.683 441.432 342.683C458.796 342.683 472.911 329.404 472.911 311.297C472.911 293.097 458.796 279.911 441.432 279.911ZM441.432 330.24C431.961 330.24 423.696 322.44 423.696 311.204C423.696 299.875 431.868 292.168 441.432 292.168C450.996 292.168 459.168 299.875 459.168 311.204C459.168 322.44 450.904 330.24 441.432 330.24Z"></path>
<path fill="#061F00" d="M525.747 281.769V286.876H525.282C522.218 283.162 516.275 279.819 508.754 279.819C493.061 279.819 478.668 293.562 478.668 311.298C478.668 328.848 493.061 342.591 508.754 342.591C516.275 342.591 522.218 339.248 525.282 335.441H525.747V339.991C525.747 351.969 519.339 358.376 509.032 358.376C500.582 358.376 495.382 352.341 493.247 347.234L481.268 352.248C484.704 360.605 493.897 370.819 509.125 370.819C525.282 370.819 538.932 361.348 538.932 338.134V281.769H525.747ZM509.961 330.241C500.489 330.241 492.504 322.255 492.504 311.298C492.504 300.248 500.489 292.169 509.961 292.169C519.339 292.169 526.675 300.248 526.675 311.298C526.768 322.348 519.339 330.241 509.961 330.241Z"></path>
<path fill="#061F00" d="M548.403 248.526H562.146V340.734H548.403V248.526Z"></path>
<path fill="#061F00" d="M599.939 330.24C592.882 330.24 587.961 326.99 584.711 320.768L626.682 303.404L625.289 299.875C622.689 292.818 614.703 279.911 598.453 279.911C582.296 279.911 568.832 292.633 568.832 311.297C568.832 328.847 582.111 342.683 599.939 342.683C614.332 342.683 622.596 333.861 626.125 328.754L615.446 321.604C611.825 326.804 606.996 330.24 599.939 330.24ZM598.918 291.983C604.396 291.983 609.039 294.675 610.525 298.668L582.482 310.275C582.111 298.204 591.861 291.983 598.918 291.983Z"></path>
<path fill="#061F00" d="M635.597 333.397C635.597 328.847 639.125 325.319 643.675 325.319C648.225 325.319 651.754 328.847 651.754 333.397C651.754 337.947 648.225 341.476 643.675 341.476C639.125 341.476 635.597 337.854 635.597 333.397ZM720.747 311.576C720.747 329.312 708.304 342.59 690.754 342.59C673.204 342.59 660.761 329.312 660.761 311.576C660.761 293.84 673.204 280.562 690.754 280.562C708.304 280.562 720.747 293.933 720.747 311.576ZM709.789 311.576C709.789 298.297 700.504 290.497 690.754 290.497C681.004 290.497 671.718 298.204 671.718 311.576C671.718 324.947 681.004 332.654 690.754 332.654C700.504 332.654 709.789 324.947 709.789 311.576ZM729.568 340.733V282.512H740.061V291.983H740.525C742.94 285.297 751.297 281.026 757.425 281.026C760.954 281.026 763.368 281.49 765.597 282.419L761.418 292.633C759.84 292.076 757.982 291.797 755.568 291.797C748.047 291.797 740.432 298.112 740.432 308.79V340.733H729.568ZM769.311 351.319L779.34 347.14C781.475 353.362 787.79 358.283 795.59 358.283C807.754 358.283 814.997 350.483 814.997 338.226V332.654H814.532C811.004 338.04 803.947 342.683 794.661 342.683C779.804 342.683 766.99 329.497 766.99 311.669C766.99 293.84 779.804 280.654 794.661 280.654C803.947 280.654 810.911 285.297 814.532 290.683H814.997V282.604H825.49V337.854C825.49 359.026 811.004 368.404 795.682 368.404C780.361 368.404 772.282 358.283 769.311 351.319ZM814.997 311.576C814.997 298.297 806.175 290.497 796.425 290.497C786.675 290.497 777.854 298.483 777.854 311.576C777.854 324.669 786.675 332.654 796.425 332.654C806.175 332.654 814.997 324.947 814.997 311.576Z"></path>
</g>
<defs>
<clipPath id="clip0_3991_1463">
<rect fill="white" height="600.188" width="1067"></rect>
</clipPath>
</defs>
</svg>
