<svg xmlns="http://www.w3.org/2000/svg" width="50" height="50" viewBox="0 0 50 50" fill="none"><path d="M35.894 1H14.106C6.86776 1 1 6.86776 1 14.106V35.894C1 43.1323 6.86776 49 14.106 49H35.894C43.1323 49 49 43.1323 49 35.894V14.106C49 6.86776 43.1323 1 35.894 1Z" fill="#2B2A29" stroke="#2B2A29" stroke-width="0.755906" stroke-miterlimit="22.9256"></path><path fill-rule="evenodd" clip-rule="evenodd" d="M14.3657 14.2579L11.5879 11.5H29.5969C38.3797 11.4971 41.2105 20.8174 35.0588 26.4011C39.1437 29.5801 38.2071 33.6587 38.3337 38.2996H35.5166C35.5179 34.2657 36.1832 30.2135 32.9424 28.5177L28.3376 33.1225H24.5335L34.4604 23.0494C36.6687 19.7434 35.373 15.4193 31.0893 14.3069L19.5569 14.2168V28.4605L17.0398 30.9776V19.7655H14.4085L11.6342 16.9911H16.8396V14.2579H14.3657Z" fill="#FEFEFE" stroke="#FEFEFE" stroke-width="0.755906" stroke-miterlimit="22.9256"></path><path fill-rule="evenodd" clip-rule="evenodd" d="M21.0093 19.7132L20.9603 16.9932H30.8105C32.7362 17.1718 33.9222 19.8709 32.2726 21.5152L18.2316 35.5002L33.0664 35.4438V38.3599H11.5022L30.1488 19.7132H21.0093Z" fill="#FEFEFE" stroke="#FEFEFE" stroke-width="0.755906" stroke-miterlimit="22.9256"></path></svg>